HIERARCHY
ROOT Hips
{
  OFFSET 135.094 103.702 327.381
  CHANNELS 6 Xposition Yposition Zposition Zrotation Xrotation Yrotation
  JOINT RightUpLeg
  {
    OFFSET -8.9458 -8.66707 0.101652
    CHANNELS 3 Zrotation Xrotation Yrotation
    JOINT RightLeg
    {
      OFFSET 0 -44.4227 1.3727
      CHANNELS 3 Zrotation Xrotation Yrotation
      JOINT RightFoot
      {
        OFFSET 0.253549 -42.0924 -1.46059
        CHANNELS 3 Zrotation Xrotation Yrotation
        JOINT RightToes
        {
          OFFSET 0.04 -4.41509 8.4991
          CHANNELS 3 Zrotation Xrotation Yrotation
          End Site
          {
            OFFSET -0.08 -0.137448 9.77979
          }
        }
      }
    }
  }
  JOINT Spine
  {
    OFFSET 0 11.8905 0
    CHANNELS 3 Zrotation Xrotation Yrotation
    JOINT Spine1
    {
      OFFSET 0 25.6574 0.127663
      CHANNELS 3 Zrotation Xrotation Yrotation
      JOINT HEad
      {
        OFFSET 0 8.73416 0.011341
        CHANNELS 3 Zrotation Xrotation Yrotation
        End Site
        {
          OFFSET -0.29 12.7742 2.51395
        }
      }
      JOINT LeftShoulder1
      {
        OFFSET 8.99 -0.362252 -0.22
        CHANNELS 3 Zrotation Xrotation Yrotation
        JOINT LeftArm
        {
          OFFSET 10.2827 -0.00338 0.322123
          CHANNELS 3 Zrotation Xrotation Yrotation
          JOINT LeftForeArm
          {
            OFFSET 32.7669 0.099144 -1.42434
            CHANNELS 3 Zrotation Xrotation Yrotation
            JOINT LeftHand
            {
              OFFSET 27.5643 0.085362 1.02216
              CHANNELS 3 Zrotation Xrotation Yrotation
              End Site
              {
                OFFSET 16.7443 -0.6 1.50291
              }
            }
          }
        }
      }
      JOINT RightShoulder
      {
        OFFSET -8.99 -0.362252 -0.22
        CHANNELS 3 Zrotation Xrotation Yrotation
        JOINT RightArm
        {
          OFFSET -10.2827 -0.00338 0.322123
          CHANNELS 3 Zrotation Xrotation Yrotation
          JOINT RightForeArm
          {
            OFFSET -32.8971 0.099144 -1.42434
            CHANNELS 3 Zrotation Xrotation Yrotation
            JOINT RightHand
            {
              OFFSET -27.4921 0.085362 1.02216
              CHANNELS 3 Zrotation Xrotation Yrotation
              End Site
              {
                OFFSET -16.6312 -0.6 1.50291
              }
            }
          }
        }
      }
    }
  }
  JOINT LeftUpLeg
  {
    OFFSET 8.9458 -8.66707 0.101652
    CHANNELS 3 Zrotation Xrotation Yrotation
    JOINT LeftLeg
    {
      OFFSET 0 -44.4227 1.3727
      CHANNELS 3 Zrotation Xrotation Yrotation
      JOINT LeftFoot
      {
        OFFSET -0.253549 -42.0924 -1.46059
        CHANNELS 3 Zrotation Xrotation Yrotation
        JOINT LeftToes
        {
          OFFSET -0.04 -4.41509 8.4991
          CHANNELS 3 Zrotation Xrotation Yrotation
          End Site
          {
            OFFSET 0.08 -0.047448 9.77979
          }
        }
      }
    }
  }
}
MOTION
Frames:	20
Frame Time:	0.0166667
0	103.703	0	2.59261	3.91081	160.195	1.37742	2.23282	-22.3203	-0.330306	12.5777	10.0083	0.85504	-9.56573	-13.811	0.0462048	0.000533964	0.662642	0.0452835	-2.52766	0.403089	0.108509	-5.05215	0.809115	2.23197	17.2276	6.96141	-7.95E-16	-1.59E-15	0.00E+00	-2.18306	-8.91239	-6.61632	-0.715016	6.30948	-8.57242	2.17653	8.57411	1.20093	-7.95E-16	-1.59E-15	0.00E+00	7.82802	-9.53216	6.43552	-0.363031	17.0473	-4.32645	-3.84548	12.3849	-4.41677	-2.92299	5.15795	-14.1699	4.94769	12.233	-20.3699	-4.65077	-15.4844	-14.0497	1.47E-14	3.10E-14	6.36E-15
0.002	103.702	0.002	2.58971	3.90826	160.211	1.3757	2.23114	-22.314	-0.334246	12.5803	9.99659	0.8605	-9.55857	-13.6345	0.0462048	0.000533964	0.662642	0.0449338	-2.52732	0.402257	0.107769	-5.05149	0.807431	2.22591	17.2111	6.98149	3.98E-16	0.00E+00	0.00E+00	-2.18688	-8.92147	-6.59929	-0.719122	6.37017	-8.59315	2.15553	8.58086	1.20969	3.98E-16	0.00E+00	0.00E+00	7.85098	-9.54662	6.41459	-0.372281	17.021	-4.3228	-3.83805	12.382	-4.4236	-2.92816	5.15104	-14.2022	4.94841	12.2379	-20.3655	-4.65072	-15.4834	-13.997	1.55E-14	3.16E-14	3.18E-15
-0.005	103.702	-0.014	2.58481	3.90104	160.231	1.3843	2.21496	-22.311	-0.342122	12.5831	9.98567	0.86345	-9.57084	-13.8095	0.0462048	0.000533964	0.662642	0.0446684	-2.52736	0.40185	0.107128	-5.05303	0.806654	2.23127	17.1991	6.98983	7.95E-16	0.00E+00	0.00E+00	-2.17455	-8.91336	-6.5949	-0.736336	6.43093	-8.59883	2.14616	8.58597	1.2086	7.95E-16	0.00E+00	0.00E+00	7.8787	-9.57658	6.39737	-0.376286	17.0338	-4.32183	-3.83005	12.3837	-4.4235	-2.93748	5.1417	-14.2463	4.94771	12.2403	-20.3565	-4.65488	-15.479	-14.0087	1.31E-14	3.22E-14	6.36E-15
-0.003	103.702	-0.013	2.57895	3.88982	160.244	1.37764	2.20936	-22.2983	-0.340884	12.586	9.96899	0.869384	-9.57647	-13.7996	0.0462048	0.000533964	0.662642	0.0442007	-2.5273	0.401756	0.106303	-5.05914	0.806281	2.23629	17.1954	6.99327	-7.95E-16	0.00E+00	0.00E+00	-2.17003	-8.89539	-6.59394	-0.751307	6.46268	-8.59596	2.14401	8.5914	1.21797	-7.95E-16	0.00E+00	0.00E+00	7.90576	-9.60097	6.37693	-0.376567	17.0488	-4.32148	-3.81066	12.394	-4.42319	-2.94489	5.13019	-14.2842	4.94719	12.2413	-20.3495	-4.64132	-15.483	-13.8899	1.55E-14	3.38E-14	6.36E-15
-0.014	103.702	-0.034	2.57446	3.88146	160.253	1.37142	2.19574	-22.292	-0.34307	12.5862	9.9633	0.867148	-9.58533	-13.9504	0.0462048	0.000533964	0.662642	0.0436016	-2.52718	0.401912	0.105321	-5.06491	0.806233	2.24243	17.1957	6.98748	-7.95E-16	0.00E+00	-3.18E-15	-2.16997	-8.89191	-6.59459	-0.760431	6.4965	-8.58687	2.14577	8.5709	1.22826	-7.95E-16	0.00E+00	-3.18E-15	7.92272	-9.61268	6.35683	-0.377942	17.027	-4.32088	-3.78771	12.4008	-4.42265	-2.95004	5.12804	-14.3053	4.94865	12.2409	-20.3522	-4.63655	-15.4815	-13.8887	1.43E-14	3.04E-14	9.54E-15
-0.015	103.702	-0.042	2.56893	3.86846	160.252	1.37067	2.19342	-22.2729	-0.344143	12.5815	9.95528	0.872581	-9.59528	-14.0084	0.0462048	0.000533964	0.662642	0.0429425	-2.52701	0.402259	0.104289	-5.07093	0.806438	2.2494	17.1978	6.97516	-1.19E-15	0.00E+00	3.18E-15	-2.17332	-8.90923	-6.59433	-0.762991	6.51616	-8.59662	2.14606	8.57443	1.23245	-1.19E-15	0.00E+00	3.18E-15	7.95023	-9.62772	6.3396	-0.379565	16.9828	-4.32036	-3.75537	12.396	-4.42185	-2.95041	5.12283	-14.311	4.95087	12.24	-20.3585	-4.63901	-15.4797	-13.9553	1.43E-14	3.16E-14	1.27E-14
-0.015	103.702	-0.04	2.56525	3.8619	160.257	1.37306	2.19962	-22.2531	-0.343859	12.573	9.94336	0.87745	-9.58503	-13.7509	0.0462048	0.000533964	0.662642	0.0422944	-2.52682	0.402735	0.103245	-5.07305	0.80682	2.24685	17.1996	6.96328	3.98E-16	-1.59E-15	-3.18E-15	-2.1766	-8.92687	-6.5906	-0.769704	6.53539	-8.61421	2.14342	8.57427	1.21959	3.98E-16	-1.59E-15	-3.18E-15	7.96681	-9.64292	6.32045	-0.378553	16.937	-4.32041	-3.7108	12.3964	-4.42122	-2.95511	5.12052	-14.3163	4.95345	12.2392	-20.3657	-4.62186	-15.4999	-13.8242	1.47E-14	3.22E-14	1.27E-14
-0.014	103.702	-0.057	2.56438	3.86339	160.262	1.37489	2.20639	-22.2434	-0.343235	12.563	9.93055	0.875582	-9.58632	-13.8165	0.0462048	0.000533964	0.662642	0.0417286	-2.52663	0.403282	0.102325	-5.07394	0.80731	2.24299	17.1993	6.95294	0.00E+00	0.00E+00	3.18E-15	-2.1779	-8.93198	-6.58504	-0.782784	6.56231	-8.63133	2.13827	8.57241	1.22067	0.00E+00	0.00E+00	3.18E-15	7.97765	-9.64669	6.30186	-0.37258	16.9143	-4.3228	-3.68131	12.4155	-4.4211	-2.96417	5.13005	-14.332	4.95603	12.2394	-20.3717	-4.6145	-15.4967	-13.8669	1.59E-14	3.14E-14	9.54E-15
-0.014	103.702	-0.052	2.5642	3.86684	160.264	1.36677	2.21895	-22.2209	-0.342132	12.5551	9.91354	0.892472	-9.59005	-13.7256	0.0462048	0.000533964	0.662642	0.0413162	-2.52647	0.403838	0.10163	-5.07387	0.807835	2.24005	17.1949	6.94722	7.95E-16	-1.59E-15	3.18E-15	-2.17709	-8.93183	-6.57615	-0.793337	6.59872	-8.64364	2.13034	8.5703	1.21749	7.95E-16	-1.59E-15	3.18E-15	7.98084	-9.62963	6.29998	-0.365679	16.9077	-4.32446	-3.67629	12.4313	-4.42149	-2.9728	5.13326	-14.3587	4.95643	12.2417	-20.3655	-4.59633	-15.5004	-13.7963	1.43E-14	3.24E-14	6.36E-15
-0.017	103.702	-0.066	2.56363	3.87247	160.264	1.37264	2.22031	-22.1981	-0.347066	12.5504	9.89162	0.879812	-9.58607	-13.7926	0.0462048	0.000533964	0.662642	0.0411285	-2.52635	0.404343	0.101261	-5.07309	0.808324	2.23861	17.1846	6.94351	7.95E-16	-3.18E-15	0.00E+00	-2.17359	-8.92958	-6.56433	-0.810803	6.6472	-8.65441	2.1163	8.56811	1.20391	7.95E-16	-3.18E-15	0.00E+00	7.98519	-9.62004	6.29697	-0.358703	16.9133	-4.32616	-3.68738	12.4227	-4.42165	-2.99265	5.13956	-14.3994	4.95467	12.2508	-20.3405	-4.58881	-15.4953	-13.8513	1.59E-14	3.34E-14	9.54E-15
-0.021	103.701	-0.061	2.56334	3.88059	160.264	1.36185	2.235	-22.1778	-0.34725	12.5499	9.88128	0.883805	-9.58649	-13.7445	0.0462048	0.000533964	0.662642	0.0412365	-2.52632	0.404736	0.101319	-5.07185	0.808705	2.24213	17.1614	6.9404	-3.98E-16	3.18E-15	-3.18E-15	-2.15126	-8.92836	-6.54648	-0.833921	6.70946	-8.65836	2.07868	8.56011	1.19703	-3.98E-16	3.18E-15	-3.18E-15	7.9855	-9.6191	6.29163	-0.355977	16.9173	-4.32939	-3.69431	12.4094	-4.42094	-3.01167	5.14699	-14.4316	4.95193	12.262	-20.3091	-4.5843	-15.4906	-13.902	1.59E-14	3.06E-14	1.27E-14
-0.026	103.7	-0.062	2.56225	3.88891	160.263	1.36023	2.23819	-22.1625	-0.352811	12.5539	9.86935	0.883401	-9.58008	-13.6465	0.0462048	0.000533964	0.662642	0.0417115	-2.52638	0.404957	0.101905	-5.07041	0.808907	2.24509	17.1386	6.93808	-7.95E-16	0.00E+00	-3.18E-15	-2.13208	-8.93001	-6.52843	-0.845972	6.77948	-8.65952	1.99963	8.55863	1.17889	-7.95E-16	0.00E+00	-3.18E-15	7.96893	-9.59702	6.28485	-0.339395	16.9045	-4.33598	-3.68691	12.4083	-4.41853	-3.02932	5.15165	-14.4546	4.95124	12.2733	-20.2852	-4.57288	-15.4911	-13.8866	1.47E-14	3.14E-14	1.91E-14
-0.038	103.699	-0.069	2.56229	3.90568	160.261	1.35478	2.24603	-22.1454	-0.354634	12.5606	9.85912	0.882066	-9.58794	-13.7828	0.0462048	0.000533964	0.662642	0.0426246	-2.52657	0.404946	0.10312	-5.06902	0.808857	2.2437	17.1095	6.93775	7.95E-16	0.00E+00	3.18E-15	-2.11096	-8.94089	-6.50206	-0.853353	6.84181	-8.65849	1.91028	8.54677	1.16123	7.95E-16	0.00E+00	3.18E-15	7.93652	-9.5817	6.28139	-0.310729	16.8833	-4.34738	-3.67014	12.4094	-4.4066	-3.04903	5.16132	-14.4752	4.95175	12.2872	-20.2618	-4.56966	-15.4859	-13.991	1.39E-14	3.28E-14	9.54E-15
-0.052	103.698	-0.079	2.55911	3.92257	160.258	1.3384	2.25602	-22.1346	-0.356882	12.5696	9.85513	0.884824	-9.59961	-13.9368	0.0462048	0.000533964	0.662642	0.044047	-2.5269	0.404643	0.105065	-5.06794	0.808484	2.23144	17.0707	6.94199	1.19E-15	-3.18E-15	3.18E-15	-2.07557	-8.94295	-6.46868	-0.858345	6.8563	-8.6554	1.83662	8.52642	1.12515	1.19E-15	-3.18E-15	3.18E-15	7.86762	-9.58291	6.27883	-0.271556	16.8578	-4.36295	-3.63351	12.4034	-4.39384	-3.07113	5.17009	-14.5012	4.94967	12.3011	-20.2304	-4.56609	-15.4859	-14.0568	1.43E-14	3.14E-14	6.36E-15
-0.06	103.697	-0.076	2.55696	3.93404	160.25	1.31465	2.26789	-22.1221	-0.35839	12.5786	9.85357	0.890354	-9.59667	-13.7808	0.0462048	0.000533964	0.662642	0.04605	-2.5274	0.403986	0.110054	-5.06743	0.807715	2.20884	17.0417	6.95218	3.98E-16	0.00E+00	0.00E+00	-2.03386	-8.94439	-6.42453	-0.852815	6.82545	-8.64822	1.78716	8.49602	1.09429	3.98E-16	0.00E+00	0.00E+00	7.77787	-9.58733	6.28418	-0.230801	16.887	-4.37908	-3.54656	12.427	-4.3863	-3.08932	5.17188	-14.5195	4.94442	12.3174	-20.1884	-4.55092	-15.5057	-13.93	1.47E-14	3.28E-14	6.36E-15
-0.072	103.696	-0.073	2.55848	3.94143	160.238	1.30422	2.26715	-22.1152	-0.359362	12.5889	9.85417	0.890877	-9.59174	-13.6513	0.0462048	0.000533964	0.662642	0.0506284	-2.5281	0.402916	0.119197	-5.06707	0.806478	2.18856	17.0224	6.96814	3.98E-16	0.00E+00	-6.36E-15	-1.99966	-8.94354	-6.39323	-0.823681	6.77109	-8.62501	1.75162	8.45792	1.09497	3.98E-16	0.00E+00	-6.36E-15	7.6844	-9.58202	6.30881	-0.200362	17.003	-4.39101	-3.46855	12.4534	-4.40338	-3.0992	5.17427	-14.5216	4.93472	12.3313	-20.146	-4.55116	-15.5043	-13.9954	1.51E-14	3.06E-14	3.18E-15
-0.081	103.696	-0.072	2.56514	3.94302	160.225	1.29402	2.26713	-22.1147	-0.359608	12.5967	9.85859	0.895698	-9.58501	-13.5002	0.0462048	0.000533964	0.662642	0.0577599	-2.52901	0.401372	0.133439	-5.06649	0.804701	2.17266	17.0193	6.99127	-3.98E-16	-1.59E-15	-3.18E-15	-1.96631	-8.93242	-6.3616	-0.793173	6.74384	-8.60454	1.7564	8.42692	1.12137	-3.98E-16	-1.59E-15	-3.18E-15	7.56077	-9.56298	6.35319	-0.162097	17.1519	-4.40601	-3.46617	12.4473	-4.42643	-3.09738	5.17726	-14.5098	4.9188	12.3379	-20.1239	-4.54533	-15.5095	-13.994	1.55E-14	3.16E-14	3.18E-15
-0.101	103.695	-0.071	2.57351	3.94783	160.215	1.29554	2.2674	-22.1245	-0.359871	12.604	9.86835	0.897237	-9.58112	-13.5223	0.0462048	0.000533964	0.662642	0.0638846	-2.53017	0.399293	0.145709	-5.066	0.802311	2.17736	17.0188	7.01574	3.98E-16	0.00E+00	6.36E-15	-1.91799	-8.90353	-6.32807	-0.778425	6.74101	-8.58643	1.75212	8.41317	1.11127	3.98E-16	0.00E+00	6.36E-15	7.41951	-9.53793	6.40488	-0.118463	17.2583	-4.42319	-3.54152	12.4045	-4.4498	-3.09418	5.1791	-14.4996	4.91118	12.3434	-20.1138	-4.54128	-15.5134	-14.0087	1.59E-14	3.28E-14	9.54E-15
-0.12	103.694	-0.071	2.58263	3.95248	160.204	1.27984	2.26711	-22.1373	-0.357423	12.6052	9.88842	0.901822	-9.58216	-13.5176	0.0462048	0.000533964	0.662642	0.0683546	-2.5316	0.39662	0.154526	-5.06588	0.797194	2.19829	17.0199	7.03487	-3.98E-16	3.18E-15	3.18E-15	-1.84335	-8.87741	-6.28109	-0.780001	6.75205	-8.59156	1.72532	8.41177	1.09003	-3.98E-16	3.18E-15	3.18E-15	7.27864	-9.45977	6.49618	-0.0456221	17.2465	-4.45207	-3.64243	12.343	-4.47346	-3.09307	5.17844	-14.4895	4.89805	12.3477	-20.0922	-4.54399	-15.5072	-14.1333	1.59E-14	3.18E-14	3.18E-15
-0.145	103.694	-0.071	2.58721	3.95387	160.205	1.2736	2.26515	-22.1608	-0.353675	12.6057	9.90554	0.9029	-9.58278	-13.5852	0.0462048	0.000533964	0.662642	0.070824	-2.53331	0.390969	0.159234	-5.06644	0.785985	2.2239	17.0224	7.0464	-3.98E-16	3.18E-15	0.00E+00	-1.77246	-8.82653	-6.25118	-0.771577	6.73918	-8.58873	1.71871	8.39887	1.07252	-3.98E-16	3.18E-15	0.00E+00	7.11007	-9.29931	6.57473	0.0809944	17.0849	-4.50245	-3.70742	12.2925	-4.50131	-3.09379	5.17195	-14.4817	4.87874	12.3501	-20.0772	-4.53125	-15.5089	-14.1088	1.55E-14	3.04E-14	6.36E-15
